<?xml version="1.0" encoding="UTF-8" standalone="no"?>
<!DOCTYPE svg PUBLIC "-//W3C//DTD SVG 1.1//EN"
 "http://www.w3.org/Graphics/SVG/1.1/DTD/svg11.dtd">
<!-- Generated by graphviz version 2.38.0 (20140413.2041)
 -->
<!-- Title: graphname Pages: 1 -->
<svg width="225pt" height="62pt"
 viewBox="0.00 0.00 225.26 62.00" xmlns="http://www.w3.org/2000/svg" xmlns:xlink="http://www.w3.org/1999/xlink">
<g id="graph0" class="graph" transform="scale(1 1) rotate(0) translate(4 58)">
<title>graphname</title>
<polygon fill="white" stroke="none" points="-4,4 -4,-58 221.26,-58 221.26,4 -4,4"/>
<!-- /rosout -->
<g id="node1" class="node"><title>/rosout</title>
<polygon fill="none" stroke="black" points="49.6345,-36 -0.134857,-18 49.6345,-3.55271e-15 99.4038,-18 49.6345,-36"/>
<text text-anchor="middle" x="49.6345" y="-14.3" font-family="Times,serif" font-size="14.00">/rosout</text>
</g>
<!-- /rosout&#45;&gt;/rosout -->
<g id="edge2" class="edge"><title>/rosout&#45;&gt;/rosout</title>
<path fill="none" stroke="black" d="M32.3508,-30.1718C23.3889,-41.6016 29.1501,-54 49.6345,-54 64.5177,-54 71.6286,-47.455 70.9673,-39.4918"/>
<polygon fill="black" stroke="black" points="74.1131,-37.9489 66.9182,-30.1718 67.6928,-40.7382 74.1131,-37.9489"/>
</g>
<!-- /rosout_agg -->
<g id="node2" class="node"><title>/rosout_agg</title>
<ellipse fill="none" stroke="black" cx="165.264" cy="-18" rx="51.9908" ry="18"/>
<text text-anchor="middle" x="165.264" y="-14.3" font-family="Times,serif" font-size="14.00">/rosout_agg</text>
</g>
<!-- /rosout&#45;&gt;/rosout_agg -->
<g id="edge1" class="edge"><title>/rosout&#45;&gt;/rosout_agg</title>
<path fill="none" stroke="black" d="M99.4832,-18C100.596,-18 101.713,-18 102.832,-18"/>
<polygon fill="black" stroke="black" points="102.924,-21.5001 112.924,-18 102.924,-14.5001 102.924,-21.5001"/>
</g>
</g>
</svg>
