<?xml version="1.0" encoding="UTF-8" standalone="no"?>
<!DOCTYPE svg PUBLIC "-//W3C//DTD SVG 1.1//EN"
 "http://www.w3.org/Graphics/SVG/1.1/DTD/svg11.dtd">
<!-- Generated by graphviz version 2.36.0 (20140111.2315)
 -->
<!-- Title: graphname Pages: 1 -->
<svg width="330pt" height="62pt"
 viewBox="0.00 0.00 330.00 62.00" xmlns="http://www.w3.org/2000/svg" xmlns:xlink="http://www.w3.org/1999/xlink">
<g id="graph0" class="graph" transform="scale(1 1) rotate(0) translate(4 58)">
<title>graphname</title>
<polygon fill="white" stroke="none" points="-4,4 -4,-58 326,-58 326,4 -4,4"/>
<!-- /teleop_turtle -->
<g id="node1" class="node"><title>/teleop_turtle</title>
<polygon fill="none" stroke="black" points="89.5,-36 0.5,-36 0.5,-0 89.5,-0 89.5,-36"/>
<text text-anchor="middle" x="45" y="-14.3" font-family="Times,serif" font-size="14.00">/teleop_turtle</text>
</g>
<!-- /rosout -->
<g id="node2" class="node"><title>/rosout</title>
<polygon fill="none" stroke="black" points="154,-36 104.231,-18 154,-3.55271e-15 203.769,-18 154,-36"/>
<text text-anchor="middle" x="154" y="-14.3" font-family="Times,serif" font-size="14.00">/rosout</text>
</g>
<!-- /teleop_turtle&#45;&gt;/rosout -->
<g id="edge1" class="edge"><title>/teleop_turtle&#45;&gt;/rosout</title>
<path fill="none" stroke="black" d="M89.521,-18C91.0398,-18 92.5697,-18 94.1056,-18"/>
<polygon fill="black" stroke="black" points="94.2749,-21.5001 104.275,-18 94.2748,-14.5001 94.2749,-21.5001"/>
</g>
<!-- /rosout&#45;&gt;/rosout -->
<g id="edge2" class="edge"><title>/rosout&#45;&gt;/rosout</title>
<path fill="none" stroke="black" d="M137.626,-30.1718C129.136,-41.6016 134.594,-54 154,-54 168.1,-54 174.837,-47.455 174.21,-39.4918"/>
<polygon fill="black" stroke="black" points="177.417,-38.087 170.374,-30.1718 170.944,-40.7513 177.417,-38.087"/>
</g>
<!-- /rosout_agg -->
<g id="node3" class="node"><title>/rosout_agg</title>
<ellipse fill="none" stroke="black" cx="270" cy="-18" rx="51.9908" ry="18"/>
<text text-anchor="middle" x="270" y="-14.3" font-family="Times,serif" font-size="14.00">/rosout_agg</text>
</g>
<!-- /rosout&#45;&gt;/rosout_agg -->
<g id="edge3" class="edge"><title>/rosout&#45;&gt;/rosout_agg</title>
<path fill="none" stroke="black" d="M203.677,-18C205.005,-18 206.338,-18 207.675,-18"/>
<polygon fill="black" stroke="black" points="207.938,-21.5001 217.938,-18 207.938,-14.5001 207.938,-21.5001"/>
</g>
</g>
</svg>
